<?xml version="1.0" standalone="no"?>
<!DOCTYPE svg PUBLIC "-//W3C//DTD SVG 20010904//EN"
 "http://www.w3.org/TR/2001/REC-SVG-20010904/DTD/svg10.dtd">
<svg version="1.0" xmlns="http://www.w3.org/2000/svg"
 width="640.000000pt" height="640.000000pt" viewBox="0 0 640.000000 640.000000"
 preserveAspectRatio="xMidYMid meet">
<metadata>
Created by potrace 1.14, written by Peter Selinger 2001-2017
</metadata>
<g transform="translate(0.000000,640.000000) scale(0.100000,-0.100000)"
fill="#000000" stroke="none">
<path d="M0 3200 l0 -3200 3200 0 3200 0 0 3200 0 3200 -3200 0 -3200 0 0
-3200z m3107 2808 c-4 -64 -13 -114 -31 -159 -27 -72 -84 -184 -116 -229 -11
-16 -20 -31 -20 -34 0 -7 -56 -98 -109 -176 -21 -30 -50 -76 -64 -102 -15 -26
-32 -50 -38 -54 -11 -6 -89 63 -89 79 0 5 10 23 23 40 26 38 43 65 56 92 5 12
16 27 25 34 9 7 16 18 16 23 0 5 32 56 70 114 39 57 70 106 70 108 0 2 18 31
40 64 22 33 40 65 40 71 0 6 4 11 9 11 4 0 30 47 57 105 26 58 52 105 57 105
6 0 8 -37 4 -92z m548 13 c322 -156 355 -175 355 -199 0 -13 -50 -22 -121 -22
-33 0 -59 -4 -59 -10 0 -15 75 -80 182 -157 73 -53 189 -117 434 -239 367
-183 398 -205 450 -318 61 -133 60 -336 -3 -535 -31 -99 -129 -187 -491 -445
-243 -173 -564 -380 -702 -454 -229 -122 -325 -156 -420 -150 -254 18 -356
250 -300 679 25 191 81 396 146 532 19 39 34 48 34 21 0 -9 -15 -76 -33 -148
-49 -189 -55 -219 -73 -339 -32 -221 27 -359 173 -403 62 -19 89 -18 176 6
213 59 454 193 1022 571 301 200 432 300 441 335 19 75 -119 178 -461 344
-170 82 -325 168 -400 222 -69 50 -228 202 -285 273 -53 66 -86 100 -160 163
l-35 30 -3 147 -4 148 29 -7 c15 -3 64 -24 108 -45z m-1072 2 c47 -27 75 -61
108 -130 34 -72 37 -129 13 -204 -20 -61 -49 -70 -39 -11 26 157 -8 205 -124
172 -63 -18 -121 29 -121 98 1 33 18 57 56 77 38 20 69 19 107 -2z m-422 -183
c44 -27 83 -50 85 -50 8 0 147 -97 177 -123 15 -13 27 -29 27 -34 0 -5 -30
-10 -67 -11 -78 -2 -93 -12 -65 -40 11 -11 24 -27 28 -35 13 -22 112 -125 169
-176 147 -131 269 -256 321 -331 91 -130 126 -241 127 -405 2 -100 -2 -132
-22 -195 -52 -167 -126 -257 -296 -362 -232 -143 -394 -144 -457 -4 -19 43
-23 72 -26 183 -5 195 31 347 121 513 22 41 51 94 64 118 32 60 92 152 98 152
3 0 26 -20 52 -44 l46 -44 -24 -34 c-13 -18 -35 -49 -50 -68 -14 -19 -37 -55
-50 -80 -13 -25 -27 -47 -30 -50 -4 -3 -35 -61 -70 -129 -58 -112 -64 -130
-64 -185 0 -58 1 -60 35 -80 47 -28 143 -27 228 4 138 49 352 204 352 255 0
60 -147 243 -333 415 -134 124 -236 241 -347 395 -35 50 -83 110 -107 135 -50
53 -68 98 -58 149 14 71 25 136 28 159 1 12 7 22 12 21 6 -1 9 -5 8 -9 -1 -4
7 -10 17 -13 11 -3 20 -1 20 4 0 5 -4 9 -10 9 -5 0 -14 9 -20 20 -6 11 -8 20
-5 20 3 0 42 -22 86 -50z m1192 -1 c7 -12 0 -25 -29 -55 -52 -51 -94 -125 -94
-164 0 -42 34 -74 101 -94 70 -20 100 -51 106 -110 11 -92 -41 -150 -133 -150
-79 0 -140 55 -158 141 -20 97 -12 189 24 268 21 46 147 188 163 182 6 -2 15
-10 20 -18z m1127 10 c0 -8 4 -8 14 0 48 40 304 -193 307 -280 0 -13 3 -18 6
-11 3 9 10 4 20 -15 16 -29 62 -153 57 -153 -19 0 -38 22 -61 68 -15 32 -38
74 -51 96 -19 31 -21 40 -10 48 10 8 9 9 -4 5 -11 -4 -28 9 -53 39 -20 24 -43
44 -51 44 -8 0 -14 4 -14 8 0 12 -96 42 -135 42 -44 0 -64 -24 -41 -48 38 -43
6 -120 -59 -142 -83 -28 -154 73 -122 175 15 49 33 74 72 102 45 31 125 45
125 22z m-2572 -394 c111 -18 169 -39 178 -67 14 -44 -112 -235 -235 -355 -68
-66 -145 -109 -245 -137 -28 -8 -100 -29 -161 -46 -144 -42 -155 -44 -155 -34
0 5 28 27 63 49 72 46 74 47 187 107 280 148 299 161 284 185 -18 29 -125 42
-351 42 -117 1 -213 4 -212 9 0 4 14 27 30 52 16 25 32 53 35 63 4 9 10 17 15
17 5 0 9 6 9 13 0 6 16 29 34 50 26 29 47 40 93 51 79 19 309 20 431 1z m3342
-157 c0 -6 6 -24 14 -41 32 -70 87 -211 146 -372 34 -94 66 -178 71 -187 5
-10 12 -42 15 -73 6 -51 5 -55 -12 -49 -10 4 -43 30 -71 57 -29 28 -56 48 -59
44 -8 -7 10 -369 32 -667 8 -107 19 -265 24 -350 6 -85 17 -249 25 -365 9
-115 22 -313 31 -440 8 -126 19 -295 24 -375 5 -80 10 -208 10 -285 0 -481
-212 -890 -527 -1014 -226 -89 -583 -265 -685 -338 -70 -50 -320 -293 -414
-403 -22 -25 -58 -65 -81 -90 -23 -25 -59 -64 -80 -86 -126 -137 -308 -204
-436 -160 -76 26 -103 42 -167 106 -146 142 -194 378 -130 640 36 146 98 317
161 444 16 33 29 63 29 67 0 13 64 119 72 119 18 0 5 -54 -53 -220 -131 -374
-153 -458 -153 -601 -1 -107 1 -119 27 -171 34 -66 68 -99 125 -122 109 -42
271 3 419 116 52 39 108 101 248 269 185 222 288 310 555 474 38 23 293 141
378 174 112 44 321 150 374 189 93 69 147 153 168 261 10 51 5 156 -25 626
-23 358 -34 520 -45 650 -10 118 -49 710 -70 1060 -5 99 -15 295 -21 435 -10
251 -16 304 -44 388 -16 47 -13 63 48 217 39 99 45 109 63 94 8 -6 14 -16 14
-21z m-1335 -30 c-4 -13 -17 -41 -29 -62 -23 -43 -11 -37 -286 -141 -124 -47
-329 -130 -509 -206 -52 -22 -95 -38 -97 -36 -4 4 27 97 46 139 7 15 20 30 29
33 37 15 269 98 456 163 110 39 238 84 285 101 105 37 113 38 105 9z m-2817
-335 c28 -70 76 -198 107 -283 31 -85 61 -164 66 -175 18 -40 30 -118 20 -128
-13 -13 -48 10 -100 65 -22 24 -42 40 -46 37 -6 -6 6 -208 25 -434 6 -66 21
-264 35 -440 14 -176 29 -374 35 -440 26 -304 41 -478 50 -575 47 -504 32
-750 -62 -1025 -58 -171 -108 -241 -94 -132 11 83 16 554 6 642 -5 44 -13 143
-19 220 -6 77 -17 221 -26 320 -8 99 -21 272 -30 385 -8 113 -20 264 -25 335
-5 72 -19 254 -30 405 -11 151 -25 334 -30 405 -6 72 -15 225 -20 340 -6 145
-14 227 -25 265 -34 110 -29 142 48 314 30 66 32 68 48 47 9 -11 39 -78 67
-148z m2841 -29 c7 -36 16 -73 21 -82 23 -44 81 -205 89 -249 24 -127 -58
-312 -145 -329 -70 -13 -134 30 -181 119 l-21 42 -11 -30 c-70 -189 -236 -247
-320 -111 -34 55 -40 89 -42 229 l-1 130 -31 28 c-27 25 -29 32 -25 73 6 49
41 104 84 133 23 15 26 15 42 -1 14 -14 16 -32 13 -114 -10 -227 -7 -264 22
-314 15 -27 36 -48 50 -52 41 -10 93 12 135 58 53 57 61 107 37 219 -40 185
-40 188 -16 240 37 81 54 62 91 -98 12 -49 25 -131 30 -181 13 -139 44 -182
133 -186 46 -2 87 20 87 47 0 7 -20 56 -45 109 -58 123 -79 204 -71 268 7 47
40 118 56 118 4 0 13 -30 19 -66z m534 6 c51 -41 59 -137 18 -218 -40 -79
-137 -148 -223 -160 -33 -4 -38 -2 -38 16 0 15 14 25 55 42 61 25 115 69 115
94 0 8 -20 38 -45 66 -27 30 -45 60 -45 75 0 84 99 135 163 85z m1218 -91 c6
-12 21 -49 34 -83 12 -33 53 -140 90 -236 121 -314 150 -420 113 -420 -5 0
-34 25 -64 55 -31 30 -60 55 -65 55 -5 0 -9 -24 -9 -52 0 -94 51 -957 70
-1183 61 -734 56 -1003 -21 -1275 -30 -107 -73 -219 -96 -254 -11 -18 -13 -18
-19 -2 -4 10 -3 59 2 109 13 130 10 561 -4 762 -7 94 -19 260 -27 370 -13 181
-27 390 -55 835 -14 226 -32 653 -31 739 1 90 -14 197 -36 269 -17 52 -17 52
15 145 39 116 70 187 82 187 5 0 14 -9 21 -21z m-3813 -336 c89 -87 162 -164
162 -171 0 -21 -28 -25 -93 -14 -34 5 -66 6 -70 2 -5 -4 42 -83 105 -174 223
-329 233 -353 233 -586 0 -223 -21 -280 -151 -414 l-57 -60 94 -31 c244 -82
298 -110 347 -178 75 -105 40 -285 -96 -484 -50 -74 -200 -218 -317 -306 -81
-60 -325 -192 -470 -254 -108 -46 -132 -56 -179 -74 -27 -10 -52 -17 -54 -15
-2 3 1 29 7 58 7 29 15 94 18 145 3 50 9 95 12 100 3 5 69 33 146 62 214 82
367 165 673 363 121 78 168 120 157 137 -18 30 -184 90 -455 165 -469 131
-486 136 -494 164 -13 39 34 217 71 269 5 7 43 22 84 32 239 63 344 102 455
168 77 46 124 88 124 109 0 8 -48 84 -106 171 -172 253 -244 377 -289 498 -46
122 -67 163 -91 176 -28 15 -29 28 -8 123 33 146 44 176 62 176 9 0 90 -71
180 -157z m-1246 -130 c153 -128 237 -309 238 -515 0 -42 -5 -101 -11 -130
-11 -49 -44 -128 -54 -128 -2 0 -2 51 2 113 4 87 2 126 -11 177 -24 92 -97
210 -191 308 -44 46 -82 85 -84 87 -3 4 35 78 52 103 13 17 21 15 59 -15z
m-91 -395 c-5 -13 -27 -59 -48 -103 -86 -174 -110 -262 -90 -322 12 -38 13
-38 66 -38 46 1 57 5 75 28 42 53 59 29 46 -63 -8 -56 -43 -130 -62 -130 -8 0
-77 -179 -101 -260 -97 -326 -85 -574 34 -777 46 -77 152 -181 224 -220 89
-46 190 -73 306 -81 l104 -7 6 -60 c4 -33 7 -106 8 -162 l1 -102 -36 -7 c-43
-8 -187 2 -253 17 -137 32 -258 97 -345 185 -50 51 -136 170 -136 190 0 6 -7
26 -16 44 -53 106 -80 323 -65 526 18 241 54 405 128 588 24 58 33 91 25 94
-54 18 -92 97 -92 193 0 73 41 216 86 297 47 87 124 191 141 192 1 0 -2 -10
-6 -22z m892 6 c41 -21 220 -144 229 -158 14 -21 7 -51 -25 -116 -40 -77 -85
-150 -93 -150 -4 0 -50 31 -103 68 -53 38 -113 79 -133 91 -21 13 -38 27 -38
32 0 13 119 249 126 249 3 0 19 -7 37 -16z m3537 -90 c60 -27 150 -114 150
-145 0 -10 5 -21 10 -24 13 -8 13 -147 -1 -205 -14 -63 -42 -130 -54 -130 -6
0 -19 14 -29 32 -33 55 -88 109 -140 136 -46 24 -61 27 -161 27 -165 0 -292
-47 -475 -172 -85 -59 -121 -88 -253 -204 -21 -19 -133 -137 -250 -264 -117
-126 -227 -245 -245 -264 -18 -18 -57 -61 -85 -94 -74 -84 -189 -175 -277
-215 -66 -31 -85 -36 -155 -36 -120 -1 -172 22 -265 114 -118 117 -160 226
-161 415 -1 211 65 432 218 740 49 99 73 132 73 101 0 -29 -56 -212 -101 -331
-90 -239 -131 -447 -109 -557 16 -82 40 -128 91 -171 74 -64 170 -71 294 -21
127 52 232 137 418 339 545 592 676 708 978 867 62 33 203 77 280 88 92 12
185 3 249 -26z m1073 -34 c66 -71 122 -166 151 -255 22 -69 46 -209 46 -274 0
-83 -29 -237 -62 -331 -105 -296 -121 -372 -98 -455 13 -47 49 -85 80 -85 27
0 68 38 99 91 15 27 30 47 33 44 5 -6 -17 -107 -31 -140 -5 -11 -15 -36 -22
-55 -7 -19 -28 -49 -47 -67 -27 -26 -42 -33 -73 -33 -52 0 -82 30 -103 102
-34 118 -17 239 69 493 29 88 58 184 64 213 16 76 14 208 -4 277 -26 103 -97
232 -180 328 l-76 88 36 65 c20 35 40 64 45 64 4 0 37 -31 73 -70z m-2965
-422 c20 -20 14 -43 -24 -79 -45 -43 -94 -126 -94 -159 1 -14 6 -32 13 -41 15
-20 70 -49 93 -49 25 0 81 -41 93 -68 31 -68 -2 -162 -66 -188 -60 -26 -119
-11 -170 42 -48 50 -66 101 -65 187 2 133 50 239 148 326 52 45 55 46 72 29z
m1777 -186 c102 -86 144 -219 113 -352 -13 -54 -29 -69 -55 -52 -9 6 -10 23
-2 72 14 83 1 142 -37 158 -20 10 -38 9 -88 -4 -77 -21 -109 -9 -144 54 -20
36 -22 47 -12 76 30 92 143 117 225 48z m-535 -155 c186 -95 240 -128 240
-149 0 -25 -14 -30 -81 -29 -33 0 -59 -3 -57 -7 12 -30 202 -174 278 -212 80
-40 208 -128 251 -172 23 -24 58 -77 78 -118 35 -72 36 -80 40 -203 4 -152
-13 -237 -66 -324 -44 -73 -63 -94 -116 -123 -38 -21 -57 -24 -209 -28 -183
-5 -364 17 -510 60 -34 10 -44 8 -132 -36 -178 -87 -330 -158 -481 -223 -221
-96 -267 -114 -271 -110 -2 1 0 28 5 57 10 60 0 100 -24 100 -19 0 -69 -69
-123 -173 -43 -80 -45 -83 -113 -115 -38 -19 -104 -57 -147 -85 -87 -58 -320
-286 -508 -497 -127 -143 -182 -191 -273 -237 -50 -25 -66 -28 -151 -28 -122
0 -181 26 -269 115 -225 228 -208 594 50 1121 37 75 73 140 80 144 22 14 1
-74 -62 -255 -128 -369 -156 -485 -146 -600 11 -123 40 -182 116 -235 41 -29
47 -30 139 -29 76 0 109 5 151 23 116 47 215 128 340 276 215 255 301 342 448
451 144 106 511 283 948 456 111 44 123 51 108 70 -6 7 -19 40 -29 73 -30 95
-25 281 10 404 42 144 143 326 226 406 28 27 30 34 30 98 0 76 18 195 32 214
11 14 12 14 198 -80z m-3380 -147 c0 -16 14 -64 31 -107 66 -162 68 -231 12
-337 -23 -42 -35 -53 -64 -60 -51 -13 -102 14 -136 72 l-27 45 -10 -29 c-23
-61 -48 -95 -86 -114 -49 -25 -74 -25 -115 0 -48 30 -66 83 -67 204 -1 93 -3
103 -26 128 -32 35 -25 81 20 127 56 58 63 45 63 -119 0 -149 4 -168 44 -204
19 -17 26 -18 61 -7 42 12 69 43 90 102 11 29 10 46 -3 100 -28 113 -30 153
-13 188 9 17 21 31 25 31 18 0 61 -167 61 -233 0 -50 20 -107 45 -133 34 -34
101 -34 116 0 9 20 5 37 -31 111 -53 110 -63 191 -30 243 23 38 40 34 40 -8z
m784 -225 c95 -45 73 -215 -42 -316 -62 -54 -183 -91 -190 -57 -2 12 18 26 72
52 42 20 81 46 87 57 14 27 -1 65 -41 103 -37 34 -46 67 -30 107 26 62 81 83
144 54z m1926 -361 c0 -3 -15 -38 -34 -78 -27 -60 -38 -74 -62 -80 -25 -6
-111 -37 -256 -92 -21 -8 -55 -20 -75 -28 -177 -67 -835 -328 -926 -368 -38
-16 -71 -28 -73 -25 -5 5 27 99 52 152 17 36 26 42 99 68 44 16 139 51 210 77
72 27 238 88 370 136 680 248 695 253 695 238z m-1590 -779 c12 -23 10 -28
-47 -89 -70 -75 -91 -122 -73 -166 11 -26 61 -60 90 -60 27 0 77 -32 93 -60
60 -102 -15 -219 -132 -208 -60 6 -92 29 -128 93 -26 46 -28 58 -27 156 0 96
3 112 29 165 27 55 150 194 172 194 5 0 16 -11 23 -25z m1966 -6 c111 -70 204
-143 204 -160 0 -26 -32 -95 -80 -174 -23 -38 -44 -72 -45 -73 -2 -2 -32 19
-68 46 -36 27 -97 69 -136 93 -39 24 -71 48 -71 52 0 10 100 218 113 235 14
18 28 15 83 -19z m-3028 -86 c45 -8 54 -30 61 -153 l6 -105 115 -7 c153 -8
165 -14 179 -78 6 -28 11 -92 11 -142 l0 -90 -87 6 c-49 4 -125 9 -170 12
l-81 6 -6 47 c-3 25 -8 83 -12 129 -3 45 -9 82 -13 82 -87 5 -274 20 -277 22
-1 2 -8 63 -15 137 -10 113 -10 134 2 143 14 9 220 3 287 -9z m2484 -298 c10
-23 8 -30 -29 -68 -87 -90 -112 -155 -78 -204 8 -12 40 -28 76 -39 81 -24 119
-66 119 -130 0 -56 -22 -99 -63 -124 -55 -34 -135 -21 -187 29 -51 48 -77 162
-60 259 19 115 50 162 185 291 16 16 25 13 37 -14z m1607 -159 c46 -32 71 -85
71 -152 0 -142 -156 -244 -394 -258 l-80 -5 -14 -47 c-33 -115 -136 -199 -316
-260 -73 -25 -266 -45 -266 -28 0 20 19 37 44 39 200 22 351 105 387 213 16
49 6 63 -40 61 -71 -5 -120 53 -107 125 22 117 219 105 282 -17 16 -30 16 -30
84 -23 117 10 211 57 250 124 26 43 20 62 -20 62 -48 0 -90 47 -90 100 0 33 6
48 30 72 28 28 35 30 85 26 37 -3 66 -13 94 -32z m-2366 -260 c15 -22 14 -25
-29 -67 -49 -48 -88 -108 -98 -152 -9 -39 33 -80 105 -100 69 -20 100 -52 106
-110 17 -147 -160 -216 -254 -99 -70 87 -78 238 -20 366 20 43 74 107 149 173
19 17 24 16 41 -11z"/>
<path d="M3542 6030 c0 -14 2 -19 5 -12 2 6 2 18 0 25 -3 6 -5 1 -5 -13z"/>
<path d="M3541 5974 c0 -11 3 -14 6 -6 3 7 2 16 -1 19 -3 4 -6 -2 -5 -13z"/>
<path d="M3543 5885 c0 -27 2 -38 4 -22 2 15 2 37 0 50 -2 12 -4 0 -4 -28z"/>
<path d="M3830 5909 c0 -5 5 -7 10 -4 6 3 10 8 10 11 0 2 -4 4 -10 4 -5 0 -10
-5 -10 -11z"/>
<path d="M3910 5856 c0 -9 5 -16 10 -16 6 0 10 4 10 9 0 6 -4 13 -10 16 -5 3
-10 -1 -10 -9z"/>
<path d="M3955 5830 c4 -6 11 -8 16 -5 14 9 11 15 -7 15 -8 0 -12 -5 -9 -10z"/>
<path d="M2050 5780 c0 -5 5 -10 10 -10 6 0 10 5 10 10 0 6 -4 10 -10 10 -5 0
-10 -4 -10 -10z"/>
<path d="M4605 5760 c3 -5 8 -10 11 -10 2 0 4 5 4 10 0 6 -5 10 -11 10 -5 0
-7 -4 -4 -10z"/>
<path d="M4630 5730 c0 -5 7 -10 15 -10 8 0 15 5 15 10 0 6 -7 10 -15 10 -8 0
-15 -4 -15 -10z"/>
<path d="M4676 5712 c-3 -5 9 -19 26 -32 l32 -23 -23 31 c-24 34 -27 36 -35
24z"/>
<path d="M4735 5640 c3 -5 8 -10 11 -10 2 0 4 5 4 10 0 6 -5 10 -11 10 -5 0
-7 -4 -4 -10z"/>
<path d="M4130 2682 c-19 -9 -59 -42 -89 -72 -119 -122 -173 -251 -140 -337
24 -65 132 -140 235 -163 43 -10 50 -9 86 16 93 65 148 137 162 216 10 54 -18
150 -66 233 -72 122 -112 145 -188 107z"/>
<path d="M4500 2451 c0 -46 -36 -211 -66 -305 -15 -48 -25 -89 -22 -91 3 -3
49 -15 104 -27 73 -16 135 -22 234 -22 149 -1 201 10 226 50 15 22 14 27 -13
81 -34 67 -70 97 -237 197 -63 38 -137 86 -165 107 -28 22 -54 39 -56 39 -3 0
-5 -13 -5 -29z"/>
</g>
</svg>
